HIERARCHY
ROOT Hips
{
  OFFSET 5.72205e-005 65.662 3.42586
  CHANNELS 6 Xposition Yposition Zposition Zrotation Xrotation Yrotation
  JOINT Chest
  {
    OFFSET 0 8.7983 -4.7612
    CHANNELS 3 Zrotation Xrotation Yrotation
    JOINT Chest2
    {
      OFFSET 0 8.0291 0.4195
      CHANNELS 3 Zrotation Xrotation Yrotation
      JOINT Chest3
      {
        OFFSET 0 9.9351 -2.2114
        CHANNELS 3 Zrotation Xrotation Yrotation
        JOINT Neck
        {
          OFFSET 0 22.3885 -0.4656
          CHANNELS 3 Zrotation Xrotation Yrotation
          JOINT Head
          {
            OFFSET -0.0001 12.643 3.4389
            CHANNELS 3 Zrotation Xrotation Yrotation
            End Site
            {
              OFFSET 0.0001 17.6655 0.5274
            }
          }
        }
        JOINT LeftCollar
        {
          OFFSET 2.2603 21.606 7.4023
          CHANNELS 3 Zrotation Xrotation Yrotation
          JOINT LeftShoulder
          {
            OFFSET 13.5163 -1.1332 -5.0146
            CHANNELS 3 Zrotation Xrotation Yrotation
            JOINT LeftElbow
            {
              OFFSET -0.0995 -28.05 -0.2431
              CHANNELS 3 Zrotation Xrotation Yrotation
              JOINT LeftWrist
              {
                OFFSET 0.0679 -23.3996 -0.1402
                CHANNELS 3 Zrotation Xrotation Yrotation
                JOINT LeftFinger1
                {
                  OFFSET 0.7932 -9.069 2.5189
                  CHANNELS 3 Zrotation Xrotation Yrotation
                  JOINT LeftFinger11
                  {
                    OFFSET -0.8272 -3.3923 0.5977
                    CHANNELS 3 Zrotation Xrotation Yrotation
                    JOINT LeftFinger12
                    {
                      OFFSET -0.5649 -2.3158 0.4082
                      CHANNELS 3 Zrotation Xrotation Yrotation
                      End Site
                      {
                        OFFSET -0.4919 -1.6479 0.2673
                      }
                    }
                  }
                }
                JOINT LeftFinger2
                {
                  OFFSET 0.9159 -9.2044 0.2193
                  CHANNELS 3 Zrotation Xrotation Yrotation
                  JOINT LeftFinger21
                  {
                    OFFSET 0.0117 -4.1944 -0.0248
                    CHANNELS 3 Zrotation Xrotation Yrotation
                    JOINT LeftFinger22
                    {
                      OFFSET 0.0071 -2.3249 -0.0142
                      CHANNELS 3 Zrotation Xrotation Yrotation
                      End Site
                      {
                        OFFSET -0.1475 -2.0882 0.0028
                      }
                    }
                  }
                }
                JOINT LeftFinger3
                {
                  OFFSET 0.6113 -8.7231 -2.0637
                  CHANNELS 3 Zrotation Xrotation Yrotation
                  JOINT LeftFinger31
                  {
                    OFFSET -0.1927 -3.8059 -0.2383
                    CHANNELS 3 Zrotation Xrotation Yrotation
                    JOINT LeftFinger32
                    {
                      OFFSET -0.1091 -2.1688 -0.1362
                      CHANNELS 3 Zrotation Xrotation Yrotation
                      End Site
                      {
                        OFFSET -0.2358 -1.9176 -0.0906
                      }
                    }
                  }
                }
                JOINT LeftFinger4
                {
                  OFFSET -0.6151 -8.0947 -3.5641
                  CHANNELS 3 Zrotation Xrotation Yrotation
                  JOINT LeftFinger41
                  {
                    OFFSET -0.4882 -2.341 -0.6462
                    CHANNELS 3 Zrotation Xrotation Yrotation
                    JOINT LeftFinger42
                    {
                      OFFSET -0.3575 -1.7167 -0.4742
                      CHANNELS 3 Zrotation Xrotation Yrotation
                      End Site
                      {
                        OFFSET -0.4187 -1.5237 -0.3496
                      }
                    }
                  }
                }
                JOINT LeftFinger0
                {
                  OFFSET -1.42 -1.8761 1.4223
                  CHANNELS 3 Zrotation Xrotation Yrotation
                  JOINT LeftFinger01
                  {
                    OFFSET -1.1471 -3.4929 2.6334
                    CHANNELS 3 Zrotation Xrotation Yrotation
                    JOINT LeftFinger02
                    {
                      OFFSET -0.823 -2.3 1.6571
                      CHANNELS 3 Zrotation Xrotation Yrotation
                      End Site
                      {
                        OFFSET -0.5822 -1.6914 1.1582
                      }
                    }
                  }
                }
              }
            }
          }
        }
        JOINT RightCollar
        {
          OFFSET -2.2603 21.606 7.4023
          CHANNELS 3 Zrotation Xrotation Yrotation
          JOINT RightShoulder
          {
            OFFSET -13.5187 -1.1334 -5.0155
            CHANNELS 3 Zrotation Xrotation Yrotation
            JOINT RightElbow
            {
              OFFSET 0.0994 -28.0499 -0.2431
              CHANNELS 3 Zrotation Xrotation Yrotation
              JOINT RightWrist
              {
                OFFSET -0.0679 -23.3996 -0.1402
                CHANNELS 3 Zrotation Xrotation Yrotation
                JOINT RightFinger1
                {
                  OFFSET -0.7932 -9.0691 2.5189
                  CHANNELS 3 Zrotation Xrotation Yrotation
                  JOINT RightFinger11
                  {
                    OFFSET 0.8272 -3.3923 0.5977
                    CHANNELS 3 Zrotation Xrotation Yrotation
                    JOINT RightFinger12
                    {
                      OFFSET 0.565 -2.3158 0.4082
                      CHANNELS 3 Zrotation Xrotation Yrotation
                      End Site
                      {
                        OFFSET 0.4919 -1.6479 0.2673
                      }
                    }
                  }
                }
                JOINT RightFinger2
                {
                  OFFSET -0.916 -9.2044 0.2193
                  CHANNELS 3 Zrotation Xrotation Yrotation
                  JOINT RightFinger21
                  {
                    OFFSET -0.0117 -4.1944 -0.0248
                    CHANNELS 3 Zrotation Xrotation Yrotation
                    JOINT RightFinger22
                    {
                      OFFSET -0.0071 -2.3249 -0.0142
                      CHANNELS 3 Zrotation Xrotation Yrotation
                      End Site
                      {
                        OFFSET 0.1475 -2.0882 0.0028
                      }
                    }
                  }
                }
                JOINT RightFinger3
                {
                  OFFSET -0.6113 -8.7231 -2.0637
                  CHANNELS 3 Zrotation Xrotation Yrotation
                  JOINT RightFinger31
                  {
                    OFFSET 0.1927 -3.8059 -0.2383
                    CHANNELS 3 Zrotation Xrotation Yrotation
                    JOINT RightFinger32
                    {
                      OFFSET 0.1091 -2.1688 -0.1362
                      CHANNELS 3 Zrotation Xrotation Yrotation
                      End Site
                      {
                        OFFSET 0.2358 -1.9176 -0.0906
                      }
                    }
                  }
                }
                JOINT RightFinger4
                {
                  OFFSET 0.6151 -8.0947 -3.564
                  CHANNELS 3 Zrotation Xrotation Yrotation
                  JOINT RightFinger41
                  {
                    OFFSET 0.4882 -2.341 -0.6462
                    CHANNELS 3 Zrotation Xrotation Yrotation
                    JOINT RightFinger42
                    {
                      OFFSET 0.3574 -1.7166 -0.4742
                      CHANNELS 3 Zrotation Xrotation Yrotation
                      End Site
                      {
                        OFFSET 0.4187 -1.5237 -0.3496
                      }
                    }
                  }
                }
                JOINT RightFinger0
                {
                  OFFSET 1.4199 -1.8761 1.4221
                  CHANNELS 3 Zrotation Xrotation Yrotation
                  JOINT RightFinger01
                  {
                    OFFSET 1.1472 -3.4929 2.6336
                    CHANNELS 3 Zrotation Xrotation Yrotation
                    JOINT RightFinger02
                    {
                      OFFSET 0.8229 -2.3 1.6571
                      CHANNELS 3 Zrotation Xrotation Yrotation
                      End Site
                      {
                        OFFSET 0.5822 -1.6914 1.1582
                      }
                    }
                  }
                }
              }
            }
          }
        }
      }
    }
  }
  JOINT RightHip
  {
    OFFSET -9.412 3.9771 -0.7758
    CHANNELS 3 Zrotation Xrotation Yrotation
    JOINT RightKnee
    {
      OFFSET -0.7531 -40.938 0
      CHANNELS 3 Zrotation Xrotation Yrotation
      JOINT RightAnkle
      {
        OFFSET 0 -40.1986 0
        CHANNELS 3 Zrotation Xrotation Yrotation
        JOINT RightToe
        {
          OFFSET 0 -4.4182 9.239
          CHANNELS 3 Zrotation Xrotation Yrotation
          End Site
          {
            OFFSET 0 0 6.1981
          }
        }
      }
    }
  }
  JOINT LeftHip
  {
    OFFSET 9.4119 3.9773 -0.7758
    CHANNELS 3 Zrotation Xrotation Yrotation
    JOINT LeftKnee
    {
      OFFSET 0.7532 -40.9383 0
      CHANNELS 3 Zrotation Xrotation Yrotation
      JOINT LeftAnkle
      {
        OFFSET 0 -40.1986 0
        CHANNELS 3 Zrotation Xrotation Yrotation
        JOINT LeftToe
        {
          OFFSET 0 -4.4182 9.239
          CHANNELS 3 Zrotation Xrotation Yrotation
          End Site
          {
            OFFSET 0 0 6.1981
          }
        }
      }
    }
  }
}
MOTION
Frames:	5
Frame Time:	0.0333333
5.72205e-005 65.662 3.42586 0 0 -0 0 0 -0 0 0 -0 0 0 -0 0 0 -0 0 0 -0 0 0 -12.5014 88.1196 14.2451 10.6914 -0.00160068 -0.00239207 0.000740045 -8.4365e-005 7.00714e-005 -9.52055e-007 9.93923e-017 -1.98785e-016 -1.59028e-015 9.93923e-017 -5.96354e-016 -1.59028e-015 -9.93923e-017 -5.96354e-016 -1.59028e-015 9.93923e-017 -1.98785e-016 -1.59028e-015 -0.0128176 0.00232552 8.52707e-005 9.93923e-017 5.96354e-016 -0 9.93923e-017 -1.98785e-016 -1.59028e-015 -0.0160551 0.00299681 0.000857156 -2.48481e-016 0 3.18055e-015 9.93923e-017 -1.98785e-016 -1.59028e-015 -0.0125865 0.0031206 0.00282719 0 1.98785e-016 -0 9.93923e-017 -1.98785e-016 -1.59028e-015 9.93923e-017 -5.96354e-016 -1.59028e-015 -9.93923e-017 -5.96354e-016 -1.59028e-015 -0.865644 0.16582 7.03859 -88.0329 10.2057 -10.5567 0.0015593 -0.00248883 -0.000788628 7.87605e-005 4.10553e-005 1.24965e-005 -3.97569e-016 -7.95139e-016 3.18055e-015 -1.98785e-016 -3.97569e-016 3.18055e-015 -1.98785e-016 0 3.18055e-015 -3.97569e-016 -7.95139e-016 3.18055e-015 0.0129473 0.00231697 -8.70038e-005 9.93923e-017 -7.95139e-016 1.59028e-015 -3.97569e-016 -7.95139e-016 3.18055e-015 0.0163314 0.00303369 -0.000872333 3.97569e-016 7.95139e-016 -3.18055e-015 -3.97569e-016 -7.95139e-016 3.18055e-015 0.0145763 0.00367772 -0.00326275 9.93923e-017 -3.97569e-016 -0 -3.97569e-016 -7.95139e-016 3.18055e-015 -1.98785e-016 -3.97569e-016 3.18055e-015 -1.98785e-016 0 3.18055e-015 3.42482 1.32465 -0.0626183 0.000117508 0.717283 0.000978199 -3.4257 -2.04197 -0.0604716 6.47761e-025 0 -0 -3.42483 1.34017 0.0627307 -0.000193936 0.682302 -0.0013703 3.42574 -2.02253 0.0595886 -8.45714e-024 0 -7.40531e-025 
9.05424 23.7615 9.73386 66.6109 -0.06603 132.51 0.293864 3.3913 -0.2842 0.606234 6.78105 -0.587411 0.60623 6.78107 -0.587405 -0.050515 -7.56684 0.00458062 -1.40565e-005 1.4009 1.75213e-006 -5.87583 -18.5245 -12.8234 34.6395 -19.1593 -1.16061 -29.295 -2.43489 -1.58186 -30.2427 -3.21883 -8.36993 -3.18055e-015 0 1.59028e-015 -6.36111e-015 -1.19271e-015 1.59028e-015 -3.18055e-015 0 -0 -3.18055e-015 0 1.59028e-015 -0.0128039 0.00231376 8.80881e-005 -6.36111e-015 3.97569e-015 1.59028e-015 -3.18055e-015 0 1.59028e-015 -0.0160732 0.00300876 0.000858221 -3.18055e-015 3.97569e-016 -0 -3.18055e-015 0 1.59028e-015 -0.0125998 0.00312156 0.0028246 1.54487e-031 -2.78299e-015 3.18055e-015 -3.18055e-015 0 1.59028e-015 -6.36111e-015 -1.19271e-015 1.59028e-015 -3.18055e-015 0 -0 -9.18567 -19.2011 10.7501 -48.7145 -31.7521 -9.6404 40.3871 -45.1219 -6.53479 28.0766 -1.71101 -0.443439 3.49392e-006 2.70899e-006 -5.48407e-006 -4.77083e-015 3.18055e-015 1.31198e-014 -3.49392e-006 -2.70899e-006 5.48407e-006 3.49392e-006 2.70899e-006 -5.48407e-006 0.0129506 0.00231644 -8.48682e-005 1.98785e-015 -3.18055e-015 -1.39149e-015 3.49392e-006 2.70899e-006 -5.48407e-006 0.0161972 0.00300211 -0.000862785 -2.38542e-015 -3.18055e-015 -1.98785e-016 3.49392e-006 2.70899e-006 -5.48407e-006 0.0146889 0.00371046 -0.00328672 8.08446e-006 9.63623e-006 2.70922e-006 3.49392e-006 2.70899e-006 -5.48407e-006 -4.77083e-015 3.18055e-015 1.31198e-014 -3.49392e-006 -2.70899e-006 5.48407e-006 -9.33343 -28.0826 -10.8515 59.3848 43.9313 -80.0238 1.54979 10.8441 0.600757 -4.21036e-008 1.00759e-006 -2.09054e-007 3.46886 -3.24505 7.03292 -1.46211 46.5573 -0.550592 3.66194 23.3966 0.991993 2.57747e-006 1.71351e-006 5.57571e-007 
8.69951 2.94482 14.2516 96.6586 -0.148901 -167.902 0.452417 4.80507 -0.452529 0.948075 9.60625 -0.948296 0.948079 9.60629 -0.948305 0.176288 -10.191 -0.0151732 -2.76152e-006 2.42534 -2.52251e-006 -8.7477 -26.4071 -13.3946 14.0673 -36.1266 -6.6545 -41.9102 -5.25145 -2.2792 -44.1476 -4.72825 -11.0175 -3.57602e-006 4.98e-006 -2.01139e-006 -2.97604e-006 6.76555e-006 -9.96189e-008 -3.97569e-016 1.98785e-015 3.18055e-015 -3.57602e-006 4.98e-006 -2.01139e-006 -0.0128097 0.00233329 8.81741e-005 -1.36438e-006 -1.2525e-006 -9.53639e-006 -3.57602e-006 4.98e-006 -2.01139e-006 -0.0160566 0.00300057 0.000851718 3.97569e-016 1.39149e-015 1.59028e-014 -3.57602e-006 4.98e-006 -2.01139e-006 -0.0126064 0.00311786 0.00282339 7.95139e-016 -1.19271e-015 -0 -3.57602e-006 4.98e-006 -2.01139e-006 -2.97604e-006 6.76555e-006 -9.96189e-008 -3.97569e-016 1.98785e-015 3.18055e-015 -12.2055 -27.4927 12.1514 -33.9961 -51.3547 -10.8734 67.1422 -64.7652 -0.389247 40.8995 -2.6175 -1.69856 3.18055e-015 1.59028e-015 1.59028e-015 -6.30597e-006 7.37108e-006 8.78596e-006 -6.36111e-015 -7.95139e-016 -1.59028e-015 3.18055e-015 1.59028e-015 1.59028e-015 0.0129481 0.00231736 -7.92116e-005 2.26213e-031 1.63003e-014 -7.95139e-016 3.18055e-015 1.59028e-015 1.59028e-015 0.0163528 0.00304073 -0.000873036 -3.18055e-015 1.07344e-014 -7.95139e-016 3.18055e-015 1.59028e-015 1.59028e-015 0.0145838 0.00369108 -0.00325911 -2.47528e-006 1.6267e-006 -1.3208e-007 3.18055e-015 1.59028e-015 1.59028e-015 -6.30597e-006 7.37108e-006 8.78596e-006 -6.36111e-015 -7.95139e-016 -1.59028e-015 -20.4969 -42.5001 -17.5147 95.2714 23.0048 -104.165 3.40937 17.7003 2.64334 -3.0445e-006 1.72488e-006 -2.16049e-007 7.24343 -6.67457 10.1265 0.247849 68.9013 -2.70527 3.12072 34.5935 1.73391 1.02803e-005 -9.05199e-006 8.43134e-006 
8.65351 7.46103 12.5787 89.8189 -0.165244 178.755 0.418282 4.254 -0.407964 0.87067 8.50479 -0.850693 0.870664 8.5048 -0.850696 0.681824 -7.87158 -0.0618738 1.39415e-005 3.0734 3.17205e-007 -8.3831 -23.6466 -14.1217 19.216 -31.5422 -4.63357 -38.059 -7.95879 -3.90869 -42.0098 -3.92604 -9.93108 -7.50295e-006 1.28421e-006 -7.89047e-007 9.50176e-006 -4.43155e-006 1.50268e-006 -1.02087e-005 1.09216e-006 1.34621e-007 -7.50295e-006 1.28421e-006 -7.89047e-007 -0.0128051 0.00232234 9.32639e-005 -7.59559e-006 3.99751e-007 -2.7121e-006 -7.50295e-006 1.28421e-006 -7.89047e-007 -0.0160528 0.00298856 0.000859322 -3.29783e-006 7.18423e-006 1.23182e-006 -7.50295e-006 1.28421e-006 -7.89047e-007 -0.0125596 0.00311434 0.00282523 -1.206e-005 2.15928e-006 5.49709e-006 -7.50295e-006 1.28421e-006 -7.89047e-007 9.50176e-006 -4.43155e-006 1.50268e-006 -1.02087e-005 1.09216e-006 1.34621e-007 -12.0031 -24.8509 10.4192 -36.4381 -46.9127 -9.88773 60.9631 -60.5633 -2.13203 38.5515 -2.53133 -1.99629 7.95139e-016 5.28022e-016 1.98785e-016 7.95139e-016 -2.64011e-015 9.93923e-017 7.95139e-016 -2.62768e-015 2.98177e-016 7.95139e-016 5.28022e-016 1.98785e-016 0.0129293 0.00231299 -8.70823e-005 -7.95139e-016 8.87698e-015 -0 7.95139e-016 5.28022e-016 1.98785e-016 0.0163635 0.00304324 -0.000884019 -1.59028e-015 2.90101e-015 2.98177e-016 7.95139e-016 5.28022e-016 1.98785e-016 0.0145836 0.00367883 -0.00325772 1.59028e-015 1.36043e-015 -0 7.95139e-016 5.28022e-016 1.98785e-016 7.95139e-016 -2.64011e-015 9.93923e-017 7.95139e-016 -2.62768e-015 2.98177e-016 -17.5876 -39.1679 -15.7368 88.7954 28.4561 -101.687 3.17819 16.1101 2.25511 -1.64235e-006 -1.01418e-006 1.05603e-007 6.53652 -5.36264 9.31298 -0.657745 63.4196 -1.83717 3.14617 32.1141 1.4981 3.63824e-006 1.39784e-005 -3.78754e-006 
8.61454 7.30889 12.314 89.6582 -0.192421 178.646 0.420531 4.05955 -0.403679 0.873094 8.1159 -0.840479 0.873086 8.11592 -0.84048 1.13754 -6.44636 -0.117366 1.16843e-005 3.79046 8.74586e-006 -8.60647 -22.8166 -14.8185 19.8155 -30.9057 -3.96232 -37.298 -10.7452 -5.31354 -42.7826 -3.5725 -9.47981 3.75182e-031 -6.75868e-015 3.18055e-015 -4.00435e-007 8.8307e-007 -1.42336e-007 -1.59028e-015 -7.55382e-015 6.36111e-015 3.75182e-031 -6.75868e-015 3.18055e-015 -0.0128224 0.00233623 8.77943e-005 -1.59028e-015 2.54444e-014 -3.18055e-015 3.75182e-031 -6.75868e-015 3.18055e-015 -0.0160203 0.00299169 0.000864115 -2.64834e-031 -4.77083e-015 -3.18055e-015 3.75182e-031 -6.75868e-015 3.18055e-015 -0.012576 0.00312512 0.00283179 7.95139e-016 2.78299e-015 3.18055e-015 3.75182e-031 -6.75868e-015 3.18055e-015 -4.00435e-007 8.8307e-007 -1.42336e-007 -1.59028e-015 -7.55382e-015 6.36111e-015 -12.3369 -24.186 9.28586 -36.0092 -46.8556 -9.52016 61.8284 -60.5981 -1.34897 38.9566 -2.6418 -2.50141 -7.95139e-016 -1.57785e-015 9.93923e-017 -8.21142e-033 -4.73356e-015 -9.93923e-017 7.95139e-016 -4.72735e-015 -9.93923e-017 -7.95139e-016 -1.57785e-015 9.93923e-017 0.0129243 0.00232179 -9.31885e-005 7.95139e-016 -9.46712e-015 -0 -7.95139e-016 -1.57785e-015 9.93923e-017 0.016279 0.00302987 -0.000872428 -7.95139e-016 -1.46604e-015 2.98177e-016 -7.95139e-016 -1.57785e-015 9.93923e-017 0.0146187 0.00368518 -0.00327482 7.95139e-016 -1.61637e-014 1.98785e-016 -7.95139e-016 -1.57785e-015 9.93923e-017 -8.21142e-033 -4.73356e-015 -9.93923e-017 7.95139e-016 -4.72735e-015 -9.93923e-017 -17.652 -38.9233 -15.7006 88.7946 28.456 -101.686 3.2912 16.0748 2.52241 4.39679e-007 -5.10603e-006 7.62201e-006 6.5368 -5.00134 9.27551 -0.761703 63.0621 -1.75672 3.15479 32.129 1.48722 -3.19886e-006 5.19893e-007 -7.20345e-006 
